HIERARCHY
ROOT Hips
{
	OFFSET 0.00000 0.00000 0.00000
	CHANNELS 6 Xposition Yposition Zposition Zrotation Yrotation Xrotation 
	JOINT LHipJoint
	{
		OFFSET 0 0 0
		CHANNELS 3 Zrotation Yrotation Xrotation
		JOINT LeftUpLeg
		{
			OFFSET 1.46561 -1.72757 0.83774
			CHANNELS 3 Zrotation Yrotation Xrotation
			JOINT LeftLeg
			{
				OFFSET 2.48915 -6.83890 0.00000
				CHANNELS 3 Zrotation Yrotation Xrotation
				JOINT LeftFoot
				{
					OFFSET 2.60555 -7.15868 0.00000
					CHANNELS 3 Zrotation Yrotation Xrotation
					JOINT LeftToeBase
					{
						OFFSET 0.19248 -0.52884 2.26738
						CHANNELS 3 Zrotation Yrotation Xrotation
						End Site
						{
							OFFSET 0.00000 -0.00000 1.17015
						}
					}
				}
			}
		}
	}
	JOINT RHipJoint
	{
		OFFSET 0 0 0
		CHANNELS 3 Zrotation Yrotation Xrotation
		JOINT RightUpLeg
		{
			OFFSET -1.46918 -1.72757 0.83774
			CHANNELS 3 Zrotation Yrotation Xrotation
			JOINT RightLeg
			{
				OFFSET -2.49034 -6.84216 0.00000
				CHANNELS 3 Zrotation Yrotation Xrotation
				JOINT RightFoot
				{
					OFFSET -2.65971 -7.30750 0.00000
					CHANNELS 3 Zrotation Yrotation Xrotation
					JOINT RightToeBase
					{
						OFFSET -0.19227 -0.52827 2.30785
						CHANNELS 3 Zrotation Yrotation Xrotation
						End Site
						{
							OFFSET -0.00000 -0.00000 1.18972
						}
					}
				}
			}
		}
	}
	JOINT LowerBack
	{
		OFFSET 0 0 0
		CHANNELS 3 Zrotation Yrotation Xrotation
		JOINT Spine
		{
			OFFSET 0.02432 2.19909 -0.28000
			CHANNELS 3 Zrotation Yrotation Xrotation
			JOINT Spine1
			{
				OFFSET 0.03714 2.21816 -0.15261
				CHANNELS 3 Zrotation Yrotation Xrotation
				JOINT Neck
				{
					OFFSET 0 0 0
					CHANNELS 3 Zrotation Yrotation Xrotation
					JOINT Neck1
					{
						OFFSET -0.01896 1.56165 0.21681
						CHANNELS 3 Zrotation Yrotation Xrotation
						JOINT Head
						{
							OFFSET 0.02744 1.56009 0.06764
							CHANNELS 3 Zrotation Yrotation Xrotation
							End Site
							{
								OFFSET 0.01212 1.60574 0.00298
							}
						}
					}
				}
				JOINT LeftShoulder
				{
					OFFSET 0 0 0
					CHANNELS 3 Zrotation Yrotation Xrotation
					JOINT LeftArm
					{
						OFFSET 3.05595 1.48048 -0.60794
						CHANNELS 3 Zrotation Yrotation Xrotation
						JOINT LeftForeArm
						{
							OFFSET 5.20607 -0.00000 -0.00000
							CHANNELS 3 Zrotation Yrotation Xrotation
							JOINT LeftHand
							{
								OFFSET 3.39961 -0.00000 0.00000
								CHANNELS 3 Zrotation Yrotation Xrotation
								JOINT LeftFingerBase
								{
									OFFSET 0 0 0
									CHANNELS 3 Zrotation Yrotation Xrotation
									JOINT LeftHandIndex1
									{
										OFFSET 0.51969 -0.00000 0.00000
										CHANNELS 3 Zrotation Yrotation Xrotation
										End Site
										{
											OFFSET 0.41899 -0.00000 0.00000
										}
									}
								}
								JOINT LThumb
								{
									OFFSET 0 0 0
									CHANNELS 3 Zrotation Yrotation Xrotation
									End Site
									{
										OFFSET 0.42539 -0.00000 0.42539
									}
								}
							}
						}
					}
				}
				JOINT RightShoulder
				{
					OFFSET 0 0 0
					CHANNELS 3 Zrotation Yrotation Xrotation
					JOINT RightArm
					{
						OFFSET -2.99052 1.57608 -0.69102
						CHANNELS 3 Zrotation Yrotation Xrotation
						JOINT RightForeArm
						{
							OFFSET -5.32214 -0.00000 0.00000
							CHANNELS 3 Zrotation Yrotation Xrotation
							JOINT RightHand
							{
								OFFSET -3.51208 -0.00000 0.00000
								CHANNELS 3 Zrotation Yrotation Xrotation
								JOINT RightFingerBase
								{
									OFFSET 0 0 0
									CHANNELS 3 Zrotation Yrotation Xrotation
									JOINT RightHandIndex1
									{
										OFFSET -0.58668 -0.00000 0.00000
										CHANNELS 3 Zrotation Yrotation Xrotation
										End Site
										{
											OFFSET -0.47300 -0.00000 0.00000
										}
									}
								}
								JOINT RThumb
								{
									OFFSET 0 0 0
									CHANNELS 3 Zrotation Yrotation Xrotation
									End Site
									{
										OFFSET -0.48022 -0.00000 0.48022
									}
								}
							}
						}
					}
				}
			}
		}
	}
}
MOTION
Frames: 6
Frame Time: 0.0166666
0.4044 17.6712 -13.6458 -0.9569 -0.5605 6.0870 0.0000 0.0000 0.0000 -18.2170 4.3805 -8.9958 0.4968 4.5189 12.5414 0.2390 3.4378 -11.1579 0.0774 1.7944 4.9378 0.0000 0.0000 0.0000 18.4703 -0.6047 -10.6810 -0.9717 -6.2756 17.5861 -0.5576 -1.3635 -14.6648 -0.5431 -4.7215 13.1160 -0.4051 -0.7644 -4.2265 1.4192 -1.0669 2.9722 1.6047 -0.5733 5.4871 -2.6064 0.0125 -14.4916 4.2586 -0.2233 16.9809 1.8091 0.1334 7.6250 -0.0000 0.0000 0.0000 -89.1567 -10.2334 36.5942 11.2904 -18.7320 -1.8681 -0.0000 0.0000 -3.8998 25.2714 -3.1763 -1.4984 -7.1250 0.0000 -0.0000 -1.0185 26.4677 0.4579 -0.0000 0.0000 0.0000 87.7423 7.6363 13.3675 -12.7464 20.9146 -2.3620 0.0000 0.0000 33.0983 -20.5501 -25.2226 9.0764 7.1250 -0.0000 -0.0000 9.9534 -56.4073 -2.8035
0.4048 17.6719 -13.6682 -0.9711 -0.5950 6.1599 0.0000 0.0000 0.0000 -18.2102 4.2881 -9.2390 0.5115 4.5842 12.7264 0.2379 3.4802 -11.1706 0.0780 1.8016 4.9577 0.0000 0.0000 0.0000 18.4811 -0.5487 -10.9088 -0.9835 -6.3126 17.6941 -0.5539 -1.3246 -14.6004 -0.5444 -4.7269 13.1313 -0.3946 -0.7555 -4.0295 1.4196 -1.0562 3.0741 1.6020 -0.5681 5.4807 -2.5624 0.0372 -14.5785 4.1638 -0.1971 17.5993 1.7810 0.1425 7.8435 -0.0000 0.0000 0.0000 -88.8371 -10.3898 36.3041 11.4263 -18.9387 -1.9120 -0.0000 0.0000 -3.9927 25.3097 -3.1716 -1.4987 -7.1250 0.0000 -0.0000 -0.9894 26.4720 0.4447 -0.0000 0.0000 0.0000 87.6581 7.6706 13.5568 -12.7879 20.9757 -2.3768 0.0000 0.0000 32.9407 -20.6237 -25.1867 9.0993 7.1250 -0.0000 -0.0000 9.8593 -56.3864 -2.7716
0.4046 17.6722 -13.6918 -0.9825 -0.6456 6.2365 0.0000 0.0000 0.0000 -18.2041 4.2020 -9.5034 0.5279 4.6561 12.9303 0.2370 3.5250 -11.1879 0.0777 1.7981 4.9480 0.0000 0.0000 0.0000 18.4890 -0.4616 -11.1495 -0.9977 -6.3566 17.8226 -0.5506 -1.2897 -14.5427 -0.5461 -4.7345 13.1529 -0.3998 -0.7405 -3.8201 1.4219 -1.0363 3.1761 1.6110 -0.5591 5.4675 -2.5303 0.0583 -14.6556 4.0818 -0.1762 18.2680 1.7592 0.1492 8.0786 -0.0000 0.0000 0.0000 -88.5136 -10.5093 36.0704 11.5837 -19.1774 -1.9634 -0.0000 0.0000 -4.2623 25.3537 -3.1244 -1.4794 -7.1250 0.0000 -0.0000 -0.9553 26.5229 0.4282 -0.0000 0.0000 0.0000 87.5789 7.7225 13.6371 -12.7974 20.9897 -2.3802 0.0000 0.0000 32.9216 -20.6569 -25.1424 9.1003 7.1250 -0.0000 -0.0000 9.8040 -56.3483 -2.7468
0.4043 17.6723 -13.7166 -0.9931 -0.7121 6.3198 0.0000 0.0000 0.0000 -18.1991 4.1196 -9.7928 0.5467 4.7368 13.1594 0.2367 3.5685 -11.2155 0.0769 1.7885 4.9216 0.0000 0.0000 0.0000 18.4939 -0.3674 -11.4126 -1.0142 -6.4074 17.9711 -0.5479 -1.2357 -14.4837 -0.5465 -4.7360 13.1571 -0.4156 -0.7216 -3.6012 1.4304 -1.0107 3.2741 1.6328 -0.5477 5.4448 -2.5774 0.0558 -14.7503 4.0611 -0.1836 19.0301 1.7694 0.1431 8.3511 0.0000 0.0000 0.0000 -88.2026 -10.5886 35.8666 11.7556 -19.4371 -2.0202 -0.0000 0.0000 -4.7032 25.3486 -2.9351 -1.3896 -7.1250 0.0000 -0.0000 -0.9574 26.7324 0.4245 0.0000 0.0000 0.0000 87.4904 7.7541 13.6788 -12.8035 20.9986 -2.3824 0.0000 0.0000 32.9255 -20.6520 -25.0934 9.0817 7.1250 -0.0000 -0.0000 9.7867 -56.2974 -2.7298
0.4044 17.6718 -13.7427 -1.0117 -0.7849 6.4071 0.0000 0.0000 0.0000 -18.1845 4.0174 -10.1101 0.5697 4.8338 13.4352 0.2371 3.6231 -11.2650 0.0761 1.7797 4.8972 0.0000 0.0000 0.0000 18.5063 -0.2745 -11.6965 -1.0327 -6.4637 18.1360 -0.5452 -1.1701 -14.4206 -0.5449 -4.7291 13.1375 -0.4252 -0.7000 -3.3652 1.4454 -0.9822 3.3684 1.6584 -0.5347 5.4081 -2.6629 0.0448 -14.8574 4.0656 -0.2004 19.8810 1.7952 0.1321 8.6588 0.0000 -0.0000 0.0000 -87.9118 -10.6555 35.6645 11.8975 -19.6508 -2.0677 -0.0000 0.0000 -5.1592 25.3540 -2.7080 -1.2825 -7.1250 0.0000 -0.0000 -0.9513 26.9834 0.4162 0.0000 -0.0000 0.0000 87.3925 7.7510 13.7066 -12.8130 21.0126 -2.3858 0.0000 0.0000 32.8807 -20.6494 -25.0805 9.0762 7.1250 -0.0000 -0.0000 9.7835 -56.2838 -2.7256
0.4046 17.6704 -13.7708 -1.0453 -0.8542 6.4946 0.0000 0.0000 0.0000 -18.1508 3.8845 -10.4649 0.5991 4.9549 13.7801 0.2385 3.6922 -11.3418 0.0759 1.7777 4.8917 0.0000 0.0000 0.0000 18.5346 -0.1663 -11.9987 -1.0540 -6.5281 18.3245 -0.5426 -1.1167 -14.3635 -0.5421 -4.7171 13.1035 -0.4149 -0.6760 -3.1069 1.4622 -0.9517 3.4695 1.6747 -0.5200 5.3656 -2.7093 0.0464 -14.9371 4.0358 -0.2020 20.7524 1.8052 0.1266 8.9712 -0.0000 -0.0000 0.0000 -87.6333 -10.7448 35.4565 11.9798 -19.7743 -2.0954 -0.0000 0.0000 -5.5125 25.4637 -2.6297 -1.2516 -7.1250 0.0000 -0.0000 -0.8667 27.0673 0.3774 -0.0000 -0.0000 0.0000 87.2996 7.7656 13.6597 -12.7921 20.9819 -2.3783 0.0000 0.0000 32.8333 -20.6900 -25.0972 9.1009 7.1250 -0.0000 -0.0000 9.7484 -56.3092 -2.7217
